<svg width="115" height="45" viewBox="0 0 115 45" fill="none" xmlns="http://www.w3.org/2000/svg">
<path fill-rule="evenodd" clip-rule="evenodd" d="M103.614 21.8615C103.713 22.8378 104.59 23.5627 105.54 23.3196C107.219 22.8903 108.791 22.0957 110.14 20.9842C111.947 19.4942 113.273 17.5016 113.948 15.2585C114.623 13.0153 114.618 10.6223 113.933 8.38199C113.248 6.14172 111.915 4.15483 110.101 2.67256C108.287 1.1903 106.074 0.27924 103.742 0.0545947C101.41 -0.170051 99.0642 0.301807 97.0006 1.4105C94.937 2.51919 93.2485 4.21492 92.1486 6.28325C91.7514 7.03024 91.4373 7.81372 91.2093 8.61969C91.1515 8.82397 90.9987 8.98618 90.8072 9.07779C89.7612 9.57813 89.0388 10.6462 89.0388 11.883C89.0388 13.5995 90.4302 14.9909 92.1467 14.9909C93.8632 14.9909 95.2546 13.5995 95.2546 11.883C95.2546 11.2452 95.0625 10.6523 94.733 10.159C94.6227 9.99393 94.5707 9.79215 94.6245 9.60104C94.7844 9.03195 95.0055 8.47879 95.2859 7.95159C96.0558 6.50376 97.2378 5.31675 98.6823 4.54066C100.127 3.76458 101.769 3.43428 103.401 3.59153C105.034 3.74878 106.583 4.38652 107.852 5.42411C109.122 6.46169 110.056 7.85252 110.535 9.42071C111.015 10.9889 111.018 12.664 110.545 14.2342C110.073 15.8044 109.145 17.1992 107.88 18.2422C107.074 18.9063 106.155 19.4087 105.172 19.7285C104.239 20.0322 103.516 20.8852 103.614 21.8615ZM92.3684 1.77673C92.3684 0.795508 91.5686 -0.0135691 90.5984 0.133069C88.8846 0.392085 87.2411 1.02529 85.788 1.99621C83.8402 3.29768 82.3221 5.14752 81.4256 7.3118C80.5292 9.47607 80.2946 11.8576 80.7516 14.1552C81.2086 16.4527 82.3367 18.5632 83.9932 20.2197C85.6496 21.8761 87.7601 23.0042 90.0577 23.4612C92.3553 23.9182 94.7368 23.6837 96.901 22.7872C99.0653 21.8907 100.915 20.3726 102.217 18.4248C102.901 17.4012 103.417 16.283 103.753 15.1124C103.81 14.9141 103.957 14.7555 104.141 14.6631C105.159 14.1527 105.858 13.0995 105.858 11.883C105.858 10.1666 104.467 8.7751 102.75 8.7751C101.034 8.7751 99.6423 10.1666 99.6423 11.883C99.6423 12.5404 99.8463 13.1501 100.195 13.6522C100.313 13.8224 100.368 14.0336 100.308 14.232C100.073 15.0151 99.7214 15.7634 99.2622 16.4507C98.3511 17.8142 97.0563 18.8768 95.5413 19.5044C94.0263 20.1319 92.3592 20.2961 90.7509 19.9762C89.1426 19.6563 87.6653 18.8666 86.5057 17.7071C85.3462 16.5476 84.5566 15.0703 84.2367 13.4619C83.9167 11.8536 84.0809 10.1866 84.7085 8.67159C85.336 7.1566 86.3987 5.86171 87.7621 4.95068C88.6302 4.37066 89.5954 3.96282 90.6053 3.74302C91.5641 3.53435 92.3684 2.75795 92.3684 1.77673ZM7.1811 17.5685C7.97633 17.5685 8.62199 17.4809 9.1181 17.3058C10.0592 16.9702 10.5298 16.3464 10.5298 15.4345C10.5298 14.9019 10.2964 14.4897 9.82943 14.1979C9.36251 13.9133 8.62929 13.6616 7.62978 13.4427L5.92259 13.0597C4.24458 12.6803 3.08457 12.2681 2.44255 11.8231C1.35549 11.0789 0.811961 9.91528 0.811961 8.33212C0.811961 6.88757 1.33725 5.68743 2.38783 4.7317C3.43841 3.77596 4.98145 3.2981 7.01694 3.2981C8.71684 3.2981 10.165 3.75043 11.3615 4.65509C12.5653 5.55246 13.1964 6.85839 13.2548 8.57288H10.0155C9.9571 7.60255 9.53395 6.91311 8.74602 6.50455C8.22073 6.23461 7.56777 6.09964 6.78713 6.09964C5.91894 6.09964 5.22585 6.27474 4.70786 6.62493C4.18986 6.97512 3.93087 7.46393 3.93087 8.09136C3.93087 8.66772 4.18622 9.09817 4.69691 9.3827C5.02522 9.57239 5.72561 9.7949 6.79807 10.0503L9.57773 10.7178C10.7961 11.0096 11.7154 11.4 12.3355 11.8888C13.2985 12.6475 13.78 13.7455 13.78 15.1828C13.78 16.6565 13.2146 17.8822 12.0838 18.8598C10.9603 19.8301 9.3698 20.3153 7.31242 20.3153C5.21126 20.3153 3.55879 19.8374 2.355 18.8817C1.15121 17.9187 0.549316 16.5981 0.549316 14.9201H3.76671C3.86885 15.657 4.06948 16.2078 4.36861 16.5726C4.91578 17.2365 5.85328 17.5685 7.1811 17.5685ZM25.7194 16.5835H19.7771L18.6609 19.8994H15.137L20.8933 3.76867H24.7017L30.4142 19.8994H26.7591L25.7194 16.5835ZM24.7783 13.8039L22.7647 7.45664L20.6854 13.8039H24.7783ZM35.8422 3.76867H32.4716V19.8994H43.831V16.9994H35.8422V3.76867ZM57.401 12.8518H49.5654V16.9994H58.4953V19.8994H46.2714V3.76867H58.1013V6.62493H49.5654V10.0503H57.401V12.8518ZM68.9135 17.3058C68.4174 17.4809 67.7718 17.5685 66.9765 17.5685C65.6487 17.5685 64.7112 17.2365 64.1641 16.5726C63.8649 16.2078 63.6643 15.657 63.5622 14.9201H60.3448C60.3448 16.5981 60.9467 17.9187 62.1504 18.8817C63.3542 19.8374 65.0067 20.3153 67.1079 20.3153C69.1652 20.3153 70.7557 19.8301 71.8792 18.8598C73.0101 17.8822 73.5755 16.6565 73.5755 15.1828C73.5755 13.7455 73.094 12.6475 72.1309 11.8888C71.5108 11.4 70.5916 11.0096 69.3732 10.7178L66.5935 10.0503C65.5211 9.7949 64.8207 9.57239 64.4924 9.3827C63.9817 9.09817 63.7263 8.66772 63.7263 8.09136C63.7263 7.46393 63.9853 6.97512 64.5033 6.62493C65.0213 6.27474 65.7144 6.09964 66.5826 6.09964C67.3632 6.09964 68.0162 6.23461 68.5415 6.50455C69.3294 6.91311 69.7525 7.60255 69.8109 8.57288H73.0502C72.9918 6.85839 72.3608 5.55246 71.157 4.65509C69.9605 3.75043 68.5123 3.2981 66.8124 3.2981C64.7769 3.2981 63.2339 3.77596 62.1833 4.7317C61.1327 5.68743 60.6074 6.88757 60.6074 8.33212C60.6074 9.91528 61.1509 11.0789 62.238 11.8231C62.88 12.2681 64.04 12.6803 65.718 13.0597L67.4252 13.4427C68.4247 13.6616 69.158 13.9133 69.6249 14.1979C70.0918 14.4897 70.3253 14.9019 70.3253 15.4345C70.3253 16.3464 69.8547 16.9702 68.9135 17.3058ZM7.1811 41.5685C7.97633 41.5685 8.62199 41.4809 9.1181 41.3058C10.0592 40.9702 10.5298 40.3464 10.5298 39.4345C10.5298 38.9019 10.2964 38.4897 9.82943 38.1978C9.36251 37.9133 8.62929 37.6616 7.62978 37.4427L5.92259 37.0597C4.24458 36.6803 3.08457 36.2681 2.44255 35.8231C1.35549 35.0789 0.811961 33.9153 0.811961 32.3321C0.811961 30.8876 1.33725 29.6874 2.38783 28.7317C3.43841 27.776 4.98145 27.2981 7.01694 27.2981C8.71684 27.2981 10.165 27.7504 11.3615 28.6551C12.5653 29.5525 13.1964 30.8584 13.2548 32.5729H10.0155C9.9571 31.6026 9.53395 30.9131 8.74602 30.5046C8.22073 30.2346 7.56777 30.0996 6.78713 30.0996C5.91894 30.0996 5.22585 30.2747 4.70786 30.6249C4.18986 30.9751 3.93087 31.4639 3.93087 32.0914C3.93087 32.6677 4.18622 33.0982 4.69691 33.3827C5.02522 33.5724 5.72561 33.7949 6.79807 34.0503L9.57773 34.7178C10.7961 35.0096 11.7154 35.4 12.3355 35.8888C13.2985 36.6475 13.78 37.7455 13.78 39.1828C13.78 40.6565 13.2146 41.8822 12.0838 42.8598C10.9603 43.8301 9.3698 44.3153 7.31242 44.3153C5.21126 44.3153 3.55879 43.8374 2.355 42.8817C1.15121 41.9186 0.549316 40.5981 0.549316 38.9201H3.76671C3.86885 39.657 4.06948 40.2078 4.36861 40.5726C4.91578 41.2365 5.85328 41.5685 7.1811 41.5685ZM18.1246 42.4658C19.343 43.7207 21.1049 44.3481 23.4103 44.3481C25.7158 44.3481 27.4777 43.7207 28.6961 42.4658C30.323 40.9264 31.1365 38.7085 31.1365 35.8122C31.1365 32.8574 30.323 30.6395 28.6961 29.1585C27.4777 27.9036 25.7158 27.2762 23.4103 27.2762C21.1049 27.2762 19.343 27.9036 18.1246 29.1585C16.4904 30.6395 15.6733 32.8574 15.6733 35.8122C15.6733 38.7085 16.4904 40.9264 18.1246 42.4658ZM27.7659 35.8122C27.7659 37.6288 27.3756 39.0296 26.5949 40.0145C25.807 40.9994 24.7455 41.4919 23.4103 41.4919C22.0752 41.4919 21.0101 40.9994 20.2148 40.0145C19.4196 39.0296 19.022 37.6288 19.022 35.8122C19.022 33.9955 19.4196 32.5948 20.2148 31.6098C21.0101 30.6249 22.0752 30.1325 23.4103 30.1325C24.7455 30.1325 25.8033 30.6286 26.584 31.6208C27.3719 32.6057 27.7659 34.0028 27.7659 35.8122ZM33.7192 27.7687H37.0898V40.9994H45.0785V43.8994H33.7192V27.7687ZM56.9632 27.7687V37.6835C56.9632 38.7924 56.8319 39.6023 56.5692 40.113C56.1607 41.0176 55.2743 41.47 53.91 41.47C52.5384 41.47 51.6483 41.0176 51.2397 40.113C50.9771 39.6023 50.8458 38.7924 50.8458 37.6835V27.7687H47.4205V37.6835C47.4205 39.398 47.6867 40.7331 48.2193 41.6888C49.2188 43.4398 51.1157 44.3153 53.91 44.3153C56.7042 44.3153 58.5974 43.4398 59.5897 41.6888C60.1222 40.7331 60.3885 39.398 60.3885 37.6835V27.7687H56.9632ZM75.3374 27.7687V30.6249H70.5113V43.8994H67.1188V30.6249H62.2708V27.7687H75.3374ZM80.4043 27.7687H77.0555V43.8994H80.4043V27.7687ZM90.6912 44.3481C88.3857 44.3481 86.6238 43.7207 85.4054 42.4658C83.7712 40.9264 82.9541 38.7085 82.9541 35.8122C82.9541 32.8574 83.7712 30.6395 85.4054 29.1585C86.6238 27.9036 88.3857 27.2762 90.6912 27.2762C92.9966 27.2762 94.7585 27.9036 95.9769 29.1585C97.6038 30.6395 98.4173 32.8574 98.4173 35.8122C98.4173 38.7085 97.6038 40.9264 95.9769 42.4658C94.7585 43.7207 92.9966 44.3481 90.6912 44.3481ZM93.8757 40.0145C94.6564 39.0296 95.0467 37.6288 95.0467 35.8122C95.0467 34.0028 94.6527 32.6057 93.8648 31.6208C93.0842 30.6286 92.0263 30.1325 90.6912 30.1325C89.356 30.1325 88.2909 30.6249 87.4957 31.6098C86.7004 32.5948 86.3028 33.9955 86.3028 35.8122C86.3028 37.6288 86.7004 39.0296 87.4957 40.0145C88.2909 40.9994 89.356 41.4919 90.6912 41.4919C92.0263 41.4919 93.0878 40.9994 93.8757 40.0145ZM110.674 43.8994H114.045V27.7687H110.904V39.0296L104.48 27.7687H100.945V43.8994H104.086V32.4416L110.674 43.8994Z" fill="url(#paint0_linear_226_225)"/>
<defs>
<linearGradient id="paint0_linear_226_225" x1="0.549316" y1="0" x2="118.529" y2="18.9384" gradientUnits="userSpaceOnUse">
<stop stop-color="#5D1563"/>
<stop offset="0.142857" stop-color="#891465"/>
<stop offset="0.285714" stop-color="#B11D61"/>
<stop offset="0.428571" stop-color="#D23357"/>
<stop offset="0.571429" stop-color="#EC5249"/>
<stop offset="0.714286" stop-color="#FC7536"/>
<stop offset="0.857143" stop-color="#FF9A1F"/>
<stop offset="1" stop-color="#FFC100"/>
</linearGradient>
</defs>
</svg>
